HIERARCHY
ROOT Hips
{
	OFFSET 0.00 0.00 0.00
	CHANNELS 6 Xposition Yposition Zposition Xrotation Yrotation Zrotation
	JOINT Spine
	{
		OFFSET 0.00000 7.50895 0.00000
		CHANNELS 3 Xrotation Yrotation Zrotation
		JOINT Head
		{
			OFFSET 0.00000 13.86115 0.00000
			CHANNELS 3 Xrotation Yrotation Zrotation
			End Site
			{
				OFFSET 0.00000 4.52755 0.00000
			}
		}
		JOINT LeftShoulder
		{
			OFFSET 0.00000 8.20478 0.00000
			CHANNELS 3 Xrotation Yrotation Zrotation
			JOINT LeftArm
			{
				OFFSET 6.63596 0.00000 0.00000
				CHANNELS 3 Xrotation Yrotation Zrotation
				JOINT LeftForeArm
				{
					OFFSET 10.27422 0.00000 0.00000
					CHANNELS 3 Yrotation Zrotation Xrotation
					JOINT LeftHand
					{
						OFFSET 8.52215 0.00000 0.00000
						CHANNELS 3 Xrotation Yrotation Zrotation
						JOINT LeftHandThumb1
						{
							OFFSET 0.00000 0.00000 0.00000
							CHANNELS 3 Xrotation Zrotation Yrotation
							End Site
							{
								OFFSET 0.00000 0.00000 3.93700
							}
						}
						End Site
						{
							OFFSET 3.93700 0.00000 0.00000
						}
					}
				}
			}
		}
		JOINT RightShoulder
		{
			OFFSET 0.00000 8.20478 0.00000
			CHANNELS 3 Xrotation Yrotation Zrotation
			JOINT RightArm
			{
				OFFSET -6.63596 0.00000 0.00000
				CHANNELS 3 Xrotation Yrotation Zrotation
				JOINT RightForeArm
				{
					OFFSET -10.27422 0.00000 0.00000
					CHANNELS 3 Yrotation Zrotation Xrotation
					JOINT RightHand
					{
						OFFSET -8.52215 0.00000 0.00000
						CHANNELS 3 Xrotation Yrotation Zrotation
						JOINT RightHandThumb1
						{
							OFFSET 0.00000 0.00000 0.00000
							CHANNELS 3 Xrotation Zrotation Yrotation
							End Site
							{
								OFFSET 0.00000 0.00000 3.93700
							}
						}
						End Site
						{
							OFFSET -3.93700 0.00000 0.00000
						}
					}
				}
			}
		}
	}
	JOINT LeftUpLeg
	{
		OFFSET 3.00056 0.00000 0.00000
		CHANNELS 3 Xrotation Yrotation Zrotation
		JOINT LeftLeg
		{
			OFFSET 0.00000 -16.49085 0.00000
			CHANNELS 3 Xrotation Yrotation Zrotation
			JOINT LeftFoot
			{
				OFFSET 0.00000 -14.55658 0.00000
				CHANNELS 3 Xrotation Yrotation Zrotation
				JOINT LeftToeBase
				{
					OFFSET 0.00000 -1.25038 4.66650
					CHANNELS 3 Xrotation Yrotation Zrotation
					End Site
					{
						OFFSET 0.00000 0.00000 2.95275
					}
				}
			}
		}
	}
	JOINT RightUpLeg
	{
		OFFSET -3.00056 0.00000 0.00000
		CHANNELS 3 Xrotation Yrotation Zrotation
		JOINT RightLeg
		{
			OFFSET 0.00000 -16.49085 0.00000
			CHANNELS 3 Xrotation Yrotation Zrotation
			JOINT RightFoot
			{
				OFFSET 0.00000 -14.55658 0.00000
				CHANNELS 3 Xrotation Yrotation Zrotation
				JOINT RightToeBase
				{
					OFFSET 0.00000 -1.25038 4.66650
					CHANNELS 3 Xrotation Yrotation Zrotation
					End Site
					{
						OFFSET 0.00000 0.00000 2.95275
					}
				}
			}
		}
	}
}
MOTION
Frames: 11
Frame Time: 0.008333
 -0.3704 32.9119 0.0174 11.3558 1.7288 -1.1391 -15.6177 5.6556 1.8800 4.8828 -11.5325 10.4673 4.6555 19.9022 27.6197 -25.6550 -7.0387 -21.0796 -13.6692 0.0000 15.2483 4.9911 24.2049 -12.0246 33.1476 -0.0000 26.2537 -26.2691 -8.5886 -38.6587 -3.8953 -8.1713 26.0857 13.2796 -0.0000 33.5589 1.8957 -7.3238 14.5551 32.8623 0.0000 -24.3270 -4.4651 8.0361 2.7467 -1.9113 -0.0000 0.0000 -9.2110 8.7487 -7.5964 11.3993 0.0000 -0.0000 -6.5453 -7.1346 -1.8860 0.8150 0.0000 0.0000 -7.7275 -8.8229 2.8393 3.2585 0.0000 -0.0000
 -0.3664 32.9123 0.0165 11.3496 1.7254 -1.1332 -15.6206 5.6773 1.8645 4.9161 -11.5251 10.5062 4.6371 19.9408 27.6260 -25.7108 -7.1041 -21.1496 -13.6644 0.0000 15.3221 4.9632 24.2045 -11.9592 33.1476 -0.0000 26.2537 -26.2668 -8.6003 -38.6562 -3.9123 -8.1924 26.0815 13.3607 -0.0000 33.5803 1.9365 -7.5341 14.4603 32.8623 0.0000 -24.3270 -4.4618 8.0453 2.7368 -1.9154 -0.0000 -0.0000 -9.2365 8.8114 -7.7235 11.6074 0.0000 -0.0000 -6.5450 -7.1423 -1.8981 0.8168 -0.0000 0.0000 -7.7152 -8.8190 2.8517 3.2428 0.0000 -0.0000
 -0.3625 32.9122 0.0144 11.3484 1.7162 -1.1365 -15.6349 5.7038 1.8796 4.9552 -11.5146 10.4862 4.6018 19.9312 27.6265 -25.6717 -7.1588 -21.2046 -13.6656 0.0000 15.2773 4.9434 24.2680 -11.8842 33.1476 -0.0000 26.2537 -26.2681 -8.6037 -38.6712 -3.9271 -8.1946 26.0731 13.3766 -0.0000 33.6427 1.9256 -7.4941 14.4551 32.8623 0.0000 -24.3270 -4.4609 8.0331 2.7345 -1.9163 -0.0000 0.0000 -9.2378 8.8338 -7.7102 11.5867 -0.0000 0.0000 -6.5500 -7.1312 -1.9003 0.8207 0.0000 0.0000 -7.7179 -8.8263 2.8577 3.2351 -0.0000 -0.0000
 -0.3578 32.9124 0.0132 11.3337 1.7125 -1.1298 -15.6341 5.7336 1.8780 5.0061 -11.5063 10.4775 4.5855 19.9308 27.6134 -25.6891 -7.2257 -21.2469 -13.6442 0.0000 15.2490 4.9191 24.2285 -11.8446 33.1476 -0.0000 26.2537 -26.2663 -8.6238 -38.6452 -3.9261 -8.1356 26.0139 13.3208 -0.0000 33.5918 1.9042 -7.3596 14.5502 32.8623 0.0000 -24.3270 -4.4466 8.0082 2.7193 -1.9112 -0.0000 -0.0000 -9.2340 8.8642 -7.6946 11.5588 -0.0000 0.0000 -6.5400 -7.1394 -1.9147 0.8184 -0.0000 -0.0000 -7.7111 -8.8155 2.8610 3.2337 0.0000 -0.0000
 -0.3519 32.9126 0.0113 11.3176 1.7039 -1.1178 -15.6257 5.7556 1.8723 5.0632 -11.4911 10.4671 4.5667 19.9502 27.6048 -25.7322 -7.2669 -21.3060 -13.6638 0.0000 15.2323 4.9194 24.2557 -11.8333 33.1476 -0.0000 26.2537 -26.2834 -8.6061 -38.6333 -3.8961 -8.1126 25.9858 13.3220 -0.0000 33.6336 1.9022 -7.3526 14.5483 32.8623 0.0000 -24.3270 -4.4327 8.0045 2.6903 -1.8873 -0.0000 0.0000 -9.2264 8.8494 -7.6070 11.3995 -0.0000 0.0000 -6.5337 -7.1389 -1.9357 0.8228 0.0000 0.0000 -7.7030 -8.8176 2.8590 3.2403 -0.0000 -0.0000
 -0.3466 32.9130 0.0103 11.2950 1.6985 -1.1122 -15.6138 5.7824 1.8686 5.1265 -11.4830 10.4647 4.5336 19.9416 27.6107 -25.7301 -7.3161 -21.3639 -13.6628 0.0000 15.1752 4.9158 24.2716 -11.8178 33.1476 -0.0000 26.2537 -26.3142 -8.5939 -38.6382 -3.8102 -8.0561 25.9803 13.3075 -0.0000 33.6590 1.8995 -7.3416 14.5493 32.8623 0.0000 -24.3270 -4.4118 8.0312 2.6838 -1.9017 0.0000 0.0000 -9.2405 8.8382 -7.6513 11.5667 -0.0000 -0.0000 -6.5148 -7.1358 -1.9491 0.8223 0.0000 -0.0000 -7.6956 -8.8134 2.8620 3.2303 -0.0000 -0.0000
 -0.3409 32.9134 0.0086 11.2691 1.7002 -1.1105 -15.6012 5.7896 1.8674 5.2090 -11.4925 10.4470 4.5352 19.9361 27.5944 -25.7407 -7.3822 -21.3984 -13.5877 0.0000 15.1816 4.8981 24.1380 -11.8357 33.1476 -0.0000 26.2537 -26.2957 -8.5889 -38.6317 -3.7901 -8.0271 25.9773 13.2957 -0.0000 33.7302 1.8891 -7.2981 14.5556 32.8623 0.0000 -24.3270 -4.3884 8.0081 2.6718 -1.8962 0.0000 -0.0000 -9.2467 8.8782 -7.6660 11.5608 0.0000 0.0000 -6.4922 -7.1485 -1.9588 0.8198 0.0000 -0.0000 -7.6858 -8.8067 2.8579 3.2573 -0.0000 -0.0000
 -0.3362 32.9135 0.0063 11.2573 1.7019 -1.1118 -15.6032 5.7947 1.8702 5.2868 -11.4768 10.4232 4.5469 19.9494 27.5901 -25.7835 -7.4222 -21.4563 -13.5456 0.0000 15.0814 4.8563 24.0520 -11.7755 33.1476 -0.0000 26.2537 -26.3232 -8.5651 -38.6408 -3.7076 -7.9580 25.9833 13.2648 -0.0000 33.7453 1.8871 -7.2719 14.5905 32.8623 0.0000 -24.3270 -4.3876 7.9972 2.6661 -1.8711 -0.0000 -0.0000 -9.2321 8.7970 -7.5482 11.3857 -0.0000 0.0000 -6.4791 -7.1546 -1.9713 0.8067 -0.0000 -0.0000 -7.6654 -8.7947 2.9383 3.2331 0.0000 0.0000
 -0.3298 32.9136 0.0043 11.2370 1.7085 -1.1089 -15.5929 5.7937 1.8748 5.3666 -11.4466 10.3946 4.5389 19.9434 27.5888 -25.7961 -7.4198 -21.5028 -13.6058 0.0000 15.0152 4.9283 24.1185 -11.9157 33.1476 -0.0000 26.2537 -26.3179 -8.5495 -38.6422 -3.6468 -7.9146 25.9826 13.2762 -0.0000 33.7517 1.8979 -7.2872 14.6410 32.8623 0.0000 -24.3270 -4.3722 7.9922 2.6522 -1.8732 0.0000 0.0000 -9.2632 8.8755 -7.6328 11.5723 -0.0000 0.0000 -6.4617 -7.1529 -1.9861 0.8045 -0.0000 0.0000 -7.6629 -8.8009 2.9563 3.2352 0.0000 -0.0000
 -0.3241 32.9135 0.0022 11.2147 1.7202 -1.1086 -15.5807 5.7969 1.8725 5.4609 -11.4354 10.3651 4.5638 19.9586 27.5663 -25.8350 -7.4930 -21.5374 -13.5387 0.0000 15.0220 4.8784 24.0268 -11.8391 33.1476 -0.0000 26.2537 -26.2820 -8.5980 -38.6507 -3.6659 -7.8309 25.9980 13.2437 -0.0000 33.7705 1.8937 -7.2312 14.7174 32.8623 0.0000 -24.3270 -4.3494 7.9746 2.6376 -1.8791 0.0000 0.0000 -9.2703 8.8927 -7.6122 11.5926 -0.0000 -0.0000 -6.4408 -7.1677 -1.9969 0.7976 -0.0000 -0.0000 -7.6568 -8.8144 2.9517 3.2317 0.0000 0.0000
 -0.3166 32.9137 -0.0007 11.2004 1.7417 -1.1043 -15.5754 5.7754 1.8732 5.5519 -11.4054 10.3139 4.5684 19.9458 27.5583 -25.8841 -7.4554 -21.5760 -13.5913 0.0000 14.8816 4.9150 24.0385 -11.9204 33.1476 -0.0000 26.2537 -26.2797 -8.5974 -38.6704 -3.6273 -7.7594 26.0226 13.2426 -0.0000 33.8061 1.9053 -7.2660 14.7364 32.8623 0.0000 -24.3270 -4.3454 7.9639 2.6192 -1.8677 0.0000 0.0000 -9.2649 8.8699 -7.5809 11.5378 -0.0000 0.0000 -6.4318 -7.1970 -2.0147 0.7997 -0.0000 -0.0000 -7.6566 -8.8002 2.9494 3.2870 0.0000 0.0000
